<svg t="1628176839308" class="icon" viewBox="0 0 1137 1024" version="1.1" xmlns="http://www.w3.org/2000/svg"
     p-id="17842" width="88" height="88">
  <path
    d="M1103.629545 671.279827H34.132873a34.132873 34.132873 0 0 1-34.132873-34.132873V386.839222a34.132873 34.132873 0 0 1 34.132873-34.132872h1069.496672a34.132873 34.132873 0 0 1 34.132873 34.132872v250.307732a34.132873 34.132873 0 0 1-34.132873 34.132873z m11.377625-284.440605a11.377624 11.377624 0 0 0-11.377625-11.377624H34.132873a11.377624 11.377624 0 0 0-11.377625 11.377624v250.307732a11.377624 11.377624 0 0 0 11.377625 11.377624h1069.496672a11.377624 11.377624 0 0 0 11.377625-11.377624V386.839222z m-367.901167 204.467284a163.172197 163.172197 0 0 1-47.444693-15.530457 197.214049 197.214049 0 0 1-42.495426 16.04245 93.182742 93.182742 0 0 0-12.11717-19.285073c-1.365315 0.853322-2.559965 1.706644-3.92528 2.389301a116.546693 116.546693 0 0 0-11.434513-16.383778 128.453377 128.453377 0 0 1-11.093183 32.596893 100.612331 100.612331 0 0 0-22.186367-14.335807c13.31182-25.087661 14.165142-62.969461 14.165142-88.910444v-47.786021h63.993447c-0.853322-3.413287-1.706644-6.826575-2.559965-9.727869l26.964969-4.095945c1.535979 4.095945 3.242623 9.215876 4.607938 13.823814h54.612596v23.381017h-72.867994l23.210353 3.583952c-1.535979 7.679896-3.242623 15.189128-5.290595 22.186367h18.602415c-3.413287-4.607938-8.021225-10.069197-11.434512-14.335806l17.749094-11.093184c5.119931 5.46126 12.458498 13.482485 16.213114 18.431751L733.794183 489.23784h21.498021v21.845038h-59.732527c-1.023986 2.73063-2.218637 5.290595-3.413288 7.850561h34.303537l4.266609-1.023986 17.066437 8.703882a98.012543 98.012543 0 0 1-26.111648 34.132873 177.229252 177.229252 0 0 0 40.100437 9.557204 98.763467 98.763467 0 0 0-14.665758 21.003094z m-69.119067-30.378256a98.791911 98.791911 0 0 1-8.703882-8.19189 118.145249 118.145249 0 0 1-21.674374 18.261087 158.598392 158.598392 0 0 0 30.378256-10.080575zM636.009192 463.484587v24.405004a365.278624 365.278624 0 0 1-4.949267 63.652119 95.975949 95.975949 0 0 0 38.228817-40.441765h-4.778602c-8.362554 0-17.578429 0.853322-19.114408 2.730629a186.678369 186.678369 0 0 0-8.19189-21.333045 11.900995 11.900995 0 0 0 5.802589-5.802588 83.665359 83.665359 0 0 0 6.143917-22.186367l25.087661 2.730629a84.7633 84.7633 0 0 1-6.143917 22.015703h10.069197a183.879473 183.879473 0 0 0 6.143917-25.770319h-48.298014z m50.687315 76.628299a64.192556 64.192556 0 0 0 11.775841 9.210187 97.170599 97.170599 0 0 0 10.92252-9.210187h-22.698361z m-182.83842-46.762035h41.642104v22.527696h-41.642104v15.359792h43.860741v23.034001h-43.860741v36.01018h-25.599655V479.185709h-3.242622a183.663298 183.663298 0 0 1-21.674375 31.743571 153.114377 153.114377 0 0 0-18.773079-17.407765 164.662666 164.662666 0 0 0 35.668851-63.999136l23.893011 6.314582c-2.218637 6.65591-4.778602 13.31182-7.679896 19.797066H550.108129v23.551682h-46.250042v14.165142z m-72.708708 96.761005H406.067407V509.563965c-2.389301 2.901294-4.778602 5.46126-7.167903 8.021225a169.776908 169.776908 0 0 0-13.311821-26.794305 172.484783 172.484783 0 0 0 37.204832-61.951163l24.063675 7.679896a282.273167 282.273167 0 0 1-15.701122 34.644866v118.947372z m455.053768-288.070067A11.332114 11.332114 0 0 1 876.111195 295.818229h-0.33564a375.285245 375.285245 0 0 0-613.788692 0h-0.347017a11.337802 11.337802 0 0 1-20.331815-10.023687l-0.04551-0.034133 0.244619-0.329951a11.377624 11.377624 0 0 1 2.178815-2.958182 397.790185 397.790185 0 0 1 650.413264 0 11.377624 11.377624 0 0 1 2.127615 2.884227l0.278752 0.375462a0.403906 0.403906 0 0 0-0.051199 0.039822 11.263848 11.263848 0 0 1 1.137762 4.863934 11.377624 11.377624 0 0 1-11.389002 11.406068z m131.781332-0.085332A11.332114 11.332114 0 0 1 1007.943726 295.818229h-0.153598a489.271973 489.271973 0 0 0-877.817838 0h-0.159287a11.337802 11.337802 0 1 1-19.131475-12.02046 511.885001 511.885001 0 0 1 916.706558 0.38115 11.377624 11.377624 0 0 1-9.403607 17.777538zM251.951799 722.479135a11.332114 11.332114 0 0 1 9.801823 5.688813h0.233241a375.285245 375.285245 0 0 0 613.788692 0h1.023986a11.34918 11.34918 0 1 1 15.84903 15.291526 397.733297 397.733297 0 0 1-648.598532-1.444958 11.315047 11.315047 0 0 1-2.076417-2.810273c-0.102399-0.147909-0.221864-0.284441-0.324262-0.438039l0.062577-0.04551a11.309358 11.309358 0 0 1 10.239862-16.241559zM113.776242 731.040798a8.408064 8.408064 0 0 0-0.568881-2.844406h16.776306a489.271973 489.271973 0 0 0 877.817839 0h0.164975a11.377624 11.377624 0 1 1 19.39885 11.707575 511.993088 511.993088 0 0 1-916.945488 0 10.609635 10.609635 0 0 1-0.847633-1.655444 8.413753 8.413753 0 0 0 4.204032-7.207725z"
    fill="#515151" p-id="17843"></path>
</svg>
