<svg t="1628175086603" class="icon" viewBox="0 0 1146 1024" version="1.1" xmlns="http://www.w3.org/2000/svg" p-id="1232"
     width="88" height="88">
  <path
    d="M866.98817342 895.45486502c8.341371 13.902285 5.560914 27.80457001-5.56091401 33.36548401a491.52 491.52 0 0 1-756.28430419-350.33758209 19.6608 19.6608 0 0 1 19.46319901-25.024113 19.6608 19.6608 0 0 1 25.024113 19.463199 444.33408 444.33408 0 0 0 255.80204407 350.33758209 436.46976 436.46976 0 0 0 428.19037811-33.36548401 31.45728 31.45728 0 0 1 33.36548401 5.560914z m-536.62820114-202.97336105l-5.560914 27.80457001 25.024113 25.02411301s0 3.88105456-1.62193325 3.53349743l-1.15852375-0.75304043-33.36548401 5.560914-11.121828 27.80457-2.780457-2.780457-16.682742-27.80457-30.58502701-2.780457c-2.3170475-2.3170475-2.69356772-2.69356772-1.15852375-4.40239026l20.62172275-20.62172275-5.560914-27.80457001-2.780457-2.780457c2.3170475-2.3170475 2.69356772-2.69356772 4.40239025-1.15852375l1.15852375 1.15852375 27.80457001 11.121828 27.80457001-16.682742 5.560914 5.560914z m150.14467804 127.90102203l0.83992972 1.30333922c0.37652022 0.95578209 0.40548331 2.02741656 0.02896309 2.92527247l-0.86889281 1.33230232-13.90228501 25.024113 11.12182801 27.80457001-38.92639801-5.560914-19.46319901 19.463199-2.780457-2.780457 0-33.36548401-27.80457001-16.682742 5.560914-11.121828 30.58502701-8.34137101 5.560914-27.80457 1.30333922-0.83992972a3.93216 3.93216 0 0 1 2.92527247-0.0289631l1.33230232 0.86889282 13.902285 25.024113 2.780457 2.780457 27.80457001 0z m645.29772891-187.10158567l-103.89061731 222.75515409a81.92 81.92 0 0 1-108.84330634 39.62151226L96.33817472 514.82188686a81.92 81.92 0 0 1-39.59254917-108.87226943L160.60727977 183.22342644a81.92 81.92 0 0 1 108.84330634-39.62151226l816.73028086 380.83571981a81.92 81.92 0 0 1 39.59254917 108.87226944z m-497.52802456 195.84843999l9.35507928 31.59873529 28.41279498 14.56843616c-0.926819 0.926819-8.13862935 6.34291753-21.69335723 16.2482956l-5.35817234 3.91001765-6.92217941 26.4433046-22.47536076-22.47536075-29.658208 7.00906869 11.78797915-30.44021154-16.682742-27.80457001 27.80457001 0 25.42959632-19.05771569zM634.06697342 387.03671721l-152.69343029-71.19128446-17.03029913 36.55142432 49.58481651 23.11254882-82.77652196 177.48583855-50.88815573-23.72077379a114.15552 114.15552 0 0 1 12.91753982-22.59121313c-41.67789192-12.83065053-78.31620552-24.73448207-109.85701462-35.71149461-22.01195126-7.53040438-33.97370898-11.38249585-35.7404577-11.52731131-1.33230231 3.07008794-4.89476285 18.79704785-10.80323397 47.00710117 0.40548331 1.91156419 1.99845347 3.15697722 4.60513191 3.73623909 29.54235563 6.37188063 60.90938617 14.16295285 94.04316543 23.37321666l25.16892847 7.21181035-10.195009 21.83817269 177.48583854 82.77652196 18.1019336-38.83950873-70.46720711-32.87311141 82.77652196-177.48583855 58.73715414 27.3990867 17.03029913-36.55142432z m-215.48541756-140.99234042c-42.74952639 45.99339289-70.75683805 70.81476424-83.9640088 74.46411406a28.38528 28.38528 0 0 1-10.2239721-0.20274166c-3.18594031-0.57926188-5.15543069-0.34755713-5.85054493 0.63718806-4.08379622 12.65687197-6.69047466 26.79086173-7.87796151 42.40196926a14.09024 14.09024 0 0 0 1.94052728 0.4923726c11.44042203 1.88260109 30.6429532 8.05174006 57.52070421 18.47845381-25.08203919 17.43578244-44.71901676 24.96618682-58.96885889 22.59121313-3.76520219-0.4634095-8.19655553-1.24541303-13.20717076-2.43289987-3.07008794-0.75304044-4.83683666-0.95578209-5.24231997-0.60822497-4.60513191 10.16604591-8.74685431 24.09729401-12.39620412 41.88063357-0.23170475 0.52133569 1.73778563 1.15852375 5.93743422 1.76674872 5.38713544 0.63718806 19.08667879 3.91001766 41.12759313 9.84745188 12.13553628 3.38868197 30.84569485 9.12337453 56.07254952 17.20407769l25.77715344 8.22551863a310.59968 310.59968 0 0 1 14.19191594-33.8868197c-6.16913897-1.53504397-15.98762775-4.74994738-29.48442944-9.55782094-9.78952569-3.41764506-17.6385241-6.0532866-23.46010595-7.99381387 28.84724138-16.2193325 55.05884123-30.44021154 78.66376265-42.74952639 3.93898075-1.853638 8.22551863-3.64934981 12.85961363-5.32920925 3.47557125-1.27437613 5.70572947-2.57771534 6.54565918-3.88105457-0.57926188-4.92372594-10.62945541-19.14460497-30.1505806-42.6626371-6.487733 5.0975045-14.88703019 10.83219707-25.16892847 17.05926222l-8.02277697 4.77891047-28.70242592-11.78797916c11.41145894-9.90537807 34.46608157-26.35641532 69.10594171-49.41103795 6.40084372-4.25757478 9.90537807-6.66151156 10.54256613-7.18284725 2.57771534-1.30333922 2.11430584-3.67831291-1.47711779-7.03803178-20.21623944-21.37476319-32.26488645-33.07585307-36.08801482-35.10326964z m253.62981204 287.45870555c-23.37321666 31.65666148-55.17469361 61.2569433-95.49132012 88.94566093 9.7605626 12.88857672 21.14305844 27.10945576 34.17645063 42.57574782 22.67810241-19.89764541 52.22045804-51.52534379 88.74291927-94.88309515a304.49664 304.49664 0 0 1-27.42804978-36.6383136z m230.54622631-61.69138971l-42.77848948-19.60801447-28.64449973 57.02833161-73.07388555-34.08956135-74.89856046 160.5134656 40.46144198 18.85497404 9.15233763-19.57905138 32.32281263 15.87177537-48.83177607 104.73054703 43.03915732 20.10038707 49.1793332-105.36773509 31.30910435 14.56843616-11.41145894 21.72232032 45.5010203 19.72386685 75.97019492-161.70095245-75.65160089-35.2770482 28.35486879-57.49174111zM814.30430587 545.7255079l-32.84414832 70.49617021-32.64140666-15.26355041 32.87311141-70.46720711 32.61244357 15.23458731z m264.02756269-84.05089808a23.59296 23.59296 0 0 1-19.463199 25.02411301 23.59296 23.59296 0 0 1-27.80457001-22.24365601 432.5376 432.5376 0 0 0-253.02158706-347.55712509A440.40192 440.40192 0 0 0 347.04271428 147.51193183a27.52512 27.52512 0 0 1-25.024113 2.780457 23.59296 23.59296 0 0 1-8.34137101-30.585027 15.72864 15.72864 0 0 1 5.56091401-11.12182801A483.65568 483.65568 0 0 1 797.4767484 75.22004981a487.58784 487.58784 0 0 1 280.82615707 386.4835231z m-351.23543799-42.43093236l-50.07718911 5.24231997c2.95423556 19.52112519 4.86579975 40.95381457 5.70572947 64.38495743l0.37652022 17.92815503 47.61532614-3.2438665c1.07163447-19.37630972-0.14481547-47.47051067-3.62038672-84.31156593z m161.61406316 161.15065367l-32.84414832 70.49617021-31.33806744-14.59739926 32.84414832-70.4961702 31.33806744 14.59739925z m-283.05631529-446.81364739l-13.902285 25.024113 2.780457 2.780457 13.902285 25.02411301c2.37497369 2.37497369 0.69511425 4.74994738-3.35971887 5.38713544l-2.20119513 0.17377856-30.58502701-2.780457-19.463199 19.463199-2.780457-2.780457-5.560914-27.80457L541.70366743 175.28753875l-25.02411301-13.90228501-2.780457-2.780457 27.80457001-16.682742 2.780457-30.58502701 25.024113 25.02411301 30.58502701-8.34137101 5.560914 5.56091401z m155.70559204 22.243656l0 27.80457001 2.780457 2.780457L791.9158344 203.12107185l-27.80457001 11.121828-5.560914 27.80457001-25.02411301-25.02411301-30.58502701 2.780457-2.780457-2.780457 16.68274201-27.80457001-11.12182801-27.80457 25.02411301 13.902285c1.15852375 1.15852375 2.83838319 1.44815469 4.25757478 0.83992972l1.30333922-0.83992972 22.24365601-22.24365601 2.780457 2.780457z m169.60787705 136.24239304l-27.80457001 27.80457 2.780457 2.780457 2.780457 30.58502701-25.02411301-13.902285-2.780457-2.780457-25.024113 13.902285-2.780457-2.780457 2.780457-30.58502701-25.02411301-25.024113 38.92639801-11.12182801 13.902285-30.58502701 2.780457 2.78045701 11.12182801 27.80457 2.780457 2.780457 27.80457 5.560914 2.78045701 2.78045701z"
    fill="#515151" p-id="1233"></path>
</svg>
